<?xml version="1.0" encoding="UTF-8"?>
<svg xmlns="http://www.w3.org/2000/svg" xmlns:xlink="http://www.w3.org/1999/xlink" width="1080" height="1920" viewBox="0 0 1080 1920">
<defs>
<g>
<g id="glyph-0-0">
<path d="M 2.761719 -2.882812 L 2.585938 -2.507812 L 2.585938 -0.234375 C 2.585938 0.125 2.429688 0.40625 2.121094 0.613281 C 1.808594 0.835938 1.472656 0.949219 1.113281 0.949219 C 0.730469 0.949219 0.460938 0.84375 0.300781 0.636719 C 0.140625 0.425781 0.0625 0.222656 0.0625 0.015625 C 0.0625 -0.273438 0.121094 -0.550781 0.234375 -0.808594 C 0.351562 -1.070312 0.425781 -1.21875 0.453125 -1.25 C 0.480469 -1.285156 0.503906 -1.300781 0.523438 -1.300781 C 0.523438 -1.273438 0.519531 -1.25 0.519531 -1.238281 C 0.515625 -1.222656 0.488281 -1.117188 0.4375 -0.925781 C 0.382812 -0.730469 0.359375 -0.589844 0.363281 -0.503906 C 0.363281 -0.207031 0.453125 -0.00390625 0.636719 0.105469 C 0.820312 0.1875 0.992188 0.230469 1.148438 0.230469 C 1.390625 0.210938 1.566406 0.183594 1.671875 0.144531 C 1.78125 0.109375 1.871094 0.0742188 1.941406 0.0429688 C 2.011719 0.0117188 2.066406 -0.0546875 2.109375 -0.152344 L 2.109375 -2.707031 L 2.019531 -3.183594 L 2.492188 -3.570312 L 2.550781 -3.105469 Z "/>
</g>
<g id="glyph-0-1">
<path d="M 2.664062 -0.226562 C 2.597656 0.09375 2.441406 0.414062 2.1875 0.726562 C 1.9375 1.039062 1.605469 1.199219 1.1875 1.199219 C 0.992188 1.199219 0.753906 1.109375 0.480469 0.9375 C 0.324219 0.828125 0.195312 0.726562 0.09375 0.628906 C -0.0117188 0.535156 -0.105469 0.421875 -0.191406 0.285156 C -0.0703125 0.3125 0.0898438 0.359375 0.292969 0.421875 C 0.496094 0.480469 0.671875 0.507812 0.820312 0.511719 C 1.128906 0.507812 1.433594 0.441406 1.730469 0.304688 C 2.027344 0.167969 2.214844 0.00390625 2.292969 -0.183594 C 2.277344 -0.183594 2.261719 -0.183594 2.246094 -0.183594 C 2.234375 -0.183594 2.21875 -0.179688 2.207031 -0.179688 C 1.976562 -0.179688 1.730469 -0.222656 1.46875 -0.3125 C 1.207031 -0.398438 1.074219 -0.515625 1.074219 -0.65625 C 1.074219 -1.09375 1.175781 -1.488281 1.371094 -1.835938 C 1.554688 -2.136719 1.734375 -2.289062 1.90625 -2.289062 C 2.109375 -2.289062 2.292969 -2.117188 2.460938 -1.777344 C 2.605469 -1.492188 2.6875 -1.214844 2.710938 -0.941406 L 2.855469 -0.941406 L 2.855469 -0.226562 Z M 2.269531 -0.941406 C 2.269531 -0.996094 2.222656 -1.089844 2.128906 -1.210938 C 2.039062 -1.335938 1.957031 -1.417969 1.890625 -1.453125 C 1.820312 -1.492188 1.757812 -1.511719 1.695312 -1.511719 C 1.664062 -1.511719 1.628906 -1.5 1.597656 -1.476562 C 1.566406 -1.453125 1.535156 -1.425781 1.507812 -1.386719 C 1.480469 -1.351562 1.460938 -1.3125 1.445312 -1.269531 C 1.429688 -1.226562 1.425781 -1.183594 1.425781 -1.144531 C 1.425781 -1.070312 1.527344 -1.007812 1.734375 -0.957031 C 1.945312 -0.90625 2.082031 -0.878906 2.144531 -0.878906 C 2.226562 -0.878906 2.269531 -0.898438 2.269531 -0.941406 Z "/>
</g>
<g id="glyph-0-2">
<path d="M 1.757812 -0.226562 L -0.0351562 -0.226562 L -0.0351562 -0.941406 L 0.925781 -0.941406 L 0.925781 -3.164062 L 1.398438 -3.570312 L 1.398438 -0.941406 L 1.757812 -0.941406 Z "/>
</g>
<g id="glyph-0-3">
<path d="M 3.898438 -0.226562 L 0 -0.226562 L 0 -0.941406 L 2.566406 -0.9375 C 2.566406 -0.957031 2.5 -1.027344 2.371094 -1.152344 C 2.238281 -1.277344 2.097656 -1.390625 1.945312 -1.496094 C 1.78125 -1.609375 1.609375 -1.664062 1.425781 -1.664062 C 1.28125 -1.664062 1.0625 -1.609375 0.765625 -1.503906 C 0.886719 -1.71875 0.976562 -1.847656 1.027344 -1.898438 C 1.160156 -2.050781 1.378906 -2.128906 1.6875 -2.128906 C 2.011719 -2.128906 2.371094 -1.949219 2.769531 -1.589844 C 2.921875 -1.449219 3.070312 -1.320312 3.214844 -1.210938 C 3.363281 -1.101562 3.542969 -1.011719 3.761719 -0.941406 L 3.898438 -0.941406 Z "/>
</g>
<g id="glyph-0-4">
<path d="M 2.570312 -0.828125 C 2.570312 -0.421875 2.332031 -0.21875 1.855469 -0.21875 C 1.65625 -0.21875 1.472656 -0.25 1.304688 -0.304688 C 1.136719 -0.363281 0.984375 -0.449219 0.84375 -0.554688 C 0.773438 -0.335938 0.605469 -0.226562 0.339844 -0.226562 L 0 -0.226562 L 0 -0.941406 C 0.605469 -0.941406 0.917969 -0.96875 0.9375 -1.023438 C 0.988281 -1.109375 1.054688 -1.234375 1.140625 -1.386719 C 1.257812 -1.640625 1.386719 -1.835938 1.523438 -1.976562 C 1.664062 -2.113281 1.808594 -2.183594 1.964844 -2.183594 C 2.066406 -2.183594 2.152344 -2.136719 2.222656 -2.046875 C 2.292969 -1.953125 2.367188 -1.761719 2.449219 -1.46875 C 2.53125 -1.175781 2.574219 -0.964844 2.570312 -0.828125 Z M 2.089844 -0.941406 C 2.089844 -1.039062 2.054688 -1.160156 1.980469 -1.308594 C 1.90625 -1.453125 1.796875 -1.527344 1.660156 -1.527344 C 1.625 -1.527344 1.574219 -1.511719 1.507812 -1.476562 C 1.441406 -1.445312 1.375 -1.390625 1.304688 -1.316406 C 1.234375 -1.242188 1.199219 -1.1875 1.199219 -1.144531 C 1.199219 -1.125 1.214844 -1.105469 1.242188 -1.078125 C 1.269531 -1.050781 1.335938 -1.019531 1.449219 -0.980469 C 1.558594 -0.9375 1.675781 -0.910156 1.796875 -0.898438 C 1.917969 -0.886719 1.992188 -0.878906 2.019531 -0.878906 C 2.066406 -0.878906 2.089844 -0.898438 2.089844 -0.941406 Z "/>
</g>
<g id="glyph-0-5">
<rect x="0" y="0" width="0" height="0" mask="url(#mask-0)"/>
</g>
<g id="glyph-0-6">
<path d="M 1.304688 1.324219 L 1.574219 1.042969 L 1.976562 1.339844 L 1.683594 1.640625 L 1.292969 1.363281 L 1.027344 1.640625 L 0.628906 1.347656 L 0.921875 1.046875 Z M 4.125 -0.226562 L 3.890625 -0.226562 C 3.804688 -0.226562 3.683594 -0.230469 3.527344 -0.234375 C 3.371094 -0.242188 3.238281 -0.375 3.121094 -0.632812 C 3.007812 -0.890625 2.898438 -1.015625 2.796875 -1.015625 C 2.714844 -1.019531 2.585938 -0.972656 2.40625 -0.875 C 2.226562 -0.777344 2.136719 -0.707031 2.136719 -0.664062 C 2.136719 -0.617188 2.335938 -0.527344 2.738281 -0.398438 C 2.871094 -0.328125 2.949219 -0.257812 2.976562 -0.191406 L 2.992188 -0.0820312 L 2.90625 0.277344 C 2.863281 0.40625 2.667969 0.550781 2.324219 0.703125 C 1.980469 0.859375 1.597656 0.9375 1.167969 0.9375 C 0.847656 0.9375 0.578125 0.855469 0.363281 0.695312 C 0.148438 0.535156 0.0429688 0.292969 0.0429688 -0.03125 C 0.0429688 -0.316406 0.144531 -0.65625 0.347656 -1.046875 C 0.496094 -1.292969 0.601562 -1.421875 0.667969 -1.4375 L 0.675781 -1.417969 C 0.664062 -1.382812 0.632812 -1.320312 0.585938 -1.230469 C 0.539062 -1.144531 0.480469 -1.027344 0.414062 -0.878906 C 0.347656 -0.730469 0.3125 -0.605469 0.3125 -0.507812 C 0.28125 0.0234375 0.707031 0.292969 1.585938 0.292969 C 1.726562 0.292969 1.925781 0.269531 2.1875 0.226562 C 2.300781 0.191406 2.359375 0.144531 2.359375 0.09375 C 2.359375 0.0742188 2.246094 0.0273438 2.023438 -0.0390625 C 1.703125 -0.125 1.542969 -0.207031 1.542969 -0.28125 C 1.539062 -0.660156 1.695312 -0.992188 2.011719 -1.277344 C 2.328125 -1.558594 2.628906 -1.695312 2.910156 -1.691406 C 3.039062 -1.691406 3.148438 -1.597656 3.242188 -1.40625 C 3.378906 -1.15625 3.484375 -1.019531 3.550781 -0.988281 C 3.621094 -0.957031 3.71875 -0.941406 3.847656 -0.941406 L 4.125 -0.941406 Z "/>
</g>
<g id="glyph-0-7">
<path d="M 0.734375 -3.542969 L 1.28125 -3.308594 L 1.082031 -2.832031 L 0.546875 -3.070312 Z M 2.054688 -0.757812 C 2.054688 -0.402344 2.003906 -0.226562 1.90625 -0.226562 L 0 -0.226562 L 0 -0.941406 L 1.46875 -0.941406 C 1.503906 -0.941406 1.519531 -0.96875 1.519531 -1.027344 C 1.519531 -1.066406 1.46875 -1.179688 1.363281 -1.363281 C 1.261719 -1.546875 1.195312 -1.640625 1.167969 -1.640625 L 1.550781 -2.238281 C 1.675781 -2.136719 1.792969 -1.910156 1.90625 -1.5625 C 2.003906 -1.21875 2.054688 -0.949219 2.054688 -0.757812 Z "/>
</g>
<g id="glyph-0-8">
<path d="M 2.179688 -0.484375 C 2.179688 -0.449219 2.175781 -0.398438 2.171875 -0.335938 C 2.164062 -0.273438 2.140625 -0.234375 2.101562 -0.222656 C 2.0625 -0.210938 1.980469 -0.191406 1.847656 -0.160156 C 1.71875 -0.128906 1.589844 -0.101562 1.460938 -0.0742188 C 1.246094 -0.0234375 1.054688 0 0.882812 0 C 0.703125 -0.00390625 0.566406 -0.0507812 0.472656 -0.136719 C 0.390625 -0.1875 0.347656 -0.3125 0.351562 -0.519531 C 0.351562 -0.542969 0.351562 -0.585938 0.355469 -0.640625 C 0.355469 -0.699219 0.367188 -0.785156 0.390625 -0.910156 C 0.410156 -1.03125 0.429688 -1.113281 0.441406 -1.15625 C 0.457031 -1.199219 0.472656 -1.21875 0.492188 -1.21875 C 0.492188 -1.21875 0.496094 -1.21875 0.5 -1.214844 L 0.515625 -1.046875 C 0.519531 -0.886719 0.5625 -0.789062 0.640625 -0.75 C 0.746094 -0.703125 0.855469 -0.679688 0.960938 -0.679688 C 1.023438 -0.679688 1.089844 -0.683594 1.160156 -0.6875 C 1.234375 -0.691406 1.328125 -0.710938 1.445312 -0.738281 C 1.675781 -0.785156 1.789062 -0.820312 1.789062 -0.84375 C 1.789062 -0.921875 1.738281 -1.101562 1.636719 -1.390625 C 1.546875 -1.605469 1.445312 -1.773438 1.332031 -1.890625 L 1.644531 -2.46875 C 1.773438 -2.324219 1.890625 -2.097656 1.996094 -1.789062 C 2.121094 -1.429688 2.179688 -0.992188 2.179688 -0.484375 Z "/>
</g>
<g id="glyph-0-9">
<path d="M 2.15625 -0.679688 C 2.15625 -0.1875 2.042969 0.21875 1.820312 0.539062 C 1.515625 0.972656 1.214844 1.1875 0.914062 1.1875 C 0.6875 1.1875 0.464844 1.074219 0.246094 0.851562 C 0.0273438 0.628906 -0.121094 0.40625 -0.203125 0.175781 L -0.078125 0.25 C 0.00390625 0.296875 0.078125 0.335938 0.140625 0.367188 C 0.207031 0.398438 0.265625 0.421875 0.328125 0.441406 C 0.386719 0.460938 0.449219 0.476562 0.515625 0.484375 C 0.578125 0.492188 0.652344 0.496094 0.734375 0.496094 C 1.035156 0.480469 1.296875 0.335938 1.511719 0.0625 C 1.730469 -0.210938 1.839844 -0.386719 1.839844 -0.46875 C 1.835938 -0.652344 1.652344 -0.902344 1.289062 -1.222656 L 1.597656 -1.875 C 1.691406 -1.785156 1.773438 -1.699219 1.847656 -1.625 C 1.921875 -1.550781 1.984375 -1.460938 2.035156 -1.363281 C 2.085938 -1.265625 2.117188 -1.152344 2.132812 -1.027344 C 2.148438 -0.898438 2.15625 -0.785156 2.15625 -0.679688 Z "/>
</g>
<g id="glyph-0-10">
<path d="M 1.027344 -3.359375 C 1.003906 -3.378906 0.925781 -3.390625 0.796875 -3.390625 C 0.761719 -3.390625 0.730469 -3.390625 0.703125 -3.386719 C 0.675781 -3.382812 0.644531 -3.359375 0.605469 -3.316406 C 0.566406 -3.277344 0.542969 -3.242188 0.542969 -3.210938 C 0.542969 -3.203125 0.546875 -3.199219 0.550781 -3.195312 C 0.582031 -3.144531 0.675781 -3.117188 0.824219 -3.117188 C 0.871094 -3.117188 0.914062 -3.121094 0.953125 -3.128906 L 1.238281 -3.195312 L 1.191406 -2.976562 C 1.070312 -2.953125 0.980469 -2.929688 0.914062 -2.90625 C 0.816406 -2.867188 0.710938 -2.8125 0.59375 -2.742188 C 0.492188 -2.679688 0.441406 -2.648438 0.445312 -2.648438 C 0.425781 -2.644531 0.414062 -2.652344 0.414062 -2.671875 C 0.414062 -2.699219 0.441406 -2.753906 0.496094 -2.828125 C 0.539062 -2.894531 0.566406 -2.929688 0.578125 -2.9375 C 0.5625 -2.9375 0.523438 -2.945312 0.464844 -2.96875 C 0.394531 -2.992188 0.359375 -3.015625 0.355469 -3.035156 C 0.34375 -3.148438 0.398438 -3.273438 0.519531 -3.410156 C 0.640625 -3.546875 0.761719 -3.617188 0.882812 -3.617188 C 0.921875 -3.617188 0.964844 -3.609375 1.011719 -3.597656 C 1.082031 -3.578125 1.121094 -3.570312 1.125 -3.570312 Z M 0.765625 0.0273438 L 0.765625 -2.457031 L 1.238281 -2.8125 L 1.238281 -0.378906 Z "/>
</g>
<g id="glyph-0-11">
<path d="M 1.722656 -0.226562 L 0.976562 -0.226562 C 0.8125 -0.226562 0.699219 -0.257812 0.636719 -0.324219 C 0.574219 -0.390625 0.542969 -0.492188 0.542969 -0.621094 L 0.542969 -3.144531 L 1.019531 -3.570312 L 1.019531 -1.109375 C 1.019531 -1 1.070312 -0.945312 1.171875 -0.945312 L 1.722656 -0.945312 Z "/>
</g>
<g id="glyph-0-12">
<path d="M 2.203125 -0.226562 L 0 -0.226562 L 0 -0.941406 L 1.484375 -0.941406 C 1.515625 -0.941406 1.53125 -0.96875 1.53125 -1.027344 C 1.53125 -1.066406 1.488281 -1.167969 1.402344 -1.328125 C 1.316406 -1.488281 1.238281 -1.597656 1.171875 -1.65625 L 1.574219 -2.234375 C 1.710938 -2.082031 1.820312 -1.863281 1.902344 -1.574219 C 1.984375 -1.289062 2.023438 -1.078125 2.023438 -0.941406 L 2.203125 -0.941406 Z M 0.0546875 -2.550781 L 0.285156 -2.914062 L 0.808594 -2.59375 L 0.585938 -2.238281 Z M 0.808594 -2.59375 L 1.03125 -2.949219 L 1.542969 -2.648438 L 1.320312 -2.285156 Z M 0.933594 -3.300781 L 0.726562 -2.941406 L 0.242188 -3.226562 L 0.464844 -3.578125 Z "/>
</g>
</g>
<image id="source-43" x="0" y="0" width="0" height="0"/>
<mask id="mask-0">
<use xlink:href="#source-43"/>
</mask>
</defs>
<g fill="rgb(96.862745%, 97.647059%, 100%)" fill-opacity="1">
<use xlink:href="#glyph-0-0" x="1070" y="24.475586"/>
<use xlink:href="#glyph-0-1" x="1073" y="24.475586"/>
<use xlink:href="#glyph-0-2" x="1076" y="24.475586"/>
<use xlink:href="#glyph-0-3" x="1078" y="24.475586"/>
<use xlink:href="#glyph-0-4" x="1082" y="24.475586"/>
<use xlink:href="#glyph-0-5" x="1085" y="24.475586"/>
<use xlink:href="#glyph-0-6" x="1087" y="24.475586"/>
<use xlink:href="#glyph-0-7" x="1091" y="24.475586"/>
<use xlink:href="#glyph-0-8" x="1093" y="24.475586"/>
<use xlink:href="#glyph-0-9" x="1095" y="24.475586"/>
<use xlink:href="#glyph-0-10" x="1097" y="24.475586"/>
<use xlink:href="#glyph-0-5" x="1098" y="24.475586"/>
<use xlink:href="#glyph-0-0" x="1100" y="24.475586"/>
<use xlink:href="#glyph-0-11" x="1103" y="24.475586"/>
<use xlink:href="#glyph-0-12" x="1105" y="24.475586"/>
<use xlink:href="#glyph-0-4" x="1107" y="24.475586"/>
</g>
</svg>
