<?xml version="1.0" encoding="UTF-8"?>
<svg xmlns="http://www.w3.org/2000/svg" xmlns:xlink="http://www.w3.org/1999/xlink" width="540" height="960" viewBox="0 0 540 960">
<defs>
<g>
<g id="glyph-0-0">
<path d="M 2.875 -3.992188 L 2.875 -1.050781 L 3.105469 -1.046875 L 3.105469 -0.25 L 2.878906 -0.25 C 2.875 0.140625 2.695312 0.457031 2.335938 0.695312 C 1.976562 0.933594 1.609375 1.054688 1.234375 1.054688 C 0.8125 1.054688 0.511719 0.9375 0.335938 0.707031 C 0.15625 0.476562 0.0664062 0.246094 0.0664062 0.0195312 C 0.0664062 -0.304688 0.132812 -0.613281 0.261719 -0.902344 C 0.390625 -1.191406 0.472656 -1.351562 0.503906 -1.390625 C 0.535156 -1.429688 0.558594 -1.445312 0.582031 -1.445312 C 0.582031 -1.414062 0.578125 -1.390625 0.578125 -1.375 C 0.574219 -1.359375 0.542969 -1.242188 0.484375 -1.027344 C 0.425781 -0.8125 0.398438 -0.65625 0.402344 -0.558594 C 0.402344 -0.226562 0.503906 -0.00390625 0.707031 0.117188 C 0.914062 0.210938 1.101562 0.257812 1.277344 0.257812 C 1.546875 0.234375 1.738281 0.203125 1.859375 0.160156 C 1.980469 0.121094 2.078125 0.0820312 2.15625 0.046875 C 2.234375 0.0117188 2.296875 -0.0585938 2.347656 -0.171875 L 2.347656 -3.527344 Z "/>
</g>
<g id="glyph-0-1">
<path d="M 2.855469 -0.921875 C 2.855469 -0.46875 2.589844 -0.242188 2.058594 -0.242188 C 1.839844 -0.242188 1.636719 -0.277344 1.449219 -0.339844 C 1.261719 -0.40625 1.09375 -0.496094 0.9375 -0.617188 C 0.859375 -0.375 0.671875 -0.25 0.378906 -0.25 L 0 -0.25 L 0 -1.046875 C 0.671875 -1.046875 1.019531 -1.078125 1.042969 -1.136719 C 1.097656 -1.234375 1.171875 -1.371094 1.265625 -1.542969 C 1.398438 -1.824219 1.539062 -2.042969 1.695312 -2.195312 C 1.847656 -2.347656 2.011719 -2.425781 2.183594 -2.425781 C 2.296875 -2.425781 2.390625 -2.375 2.46875 -2.273438 C 2.546875 -2.171875 2.628906 -1.957031 2.722656 -1.632812 C 2.816406 -1.308594 2.859375 -1.070312 2.855469 -0.921875 Z M 2.324219 -1.042969 C 2.324219 -1.152344 2.28125 -1.289062 2.199219 -1.453125 C 2.117188 -1.617188 2 -1.699219 1.847656 -1.699219 C 1.808594 -1.699219 1.75 -1.679688 1.675781 -1.644531 C 1.601562 -1.605469 1.527344 -1.546875 1.449219 -1.464844 C 1.371094 -1.382812 1.332031 -1.320312 1.332031 -1.273438 C 1.332031 -1.25 1.347656 -1.226562 1.378906 -1.199219 C 1.410156 -1.171875 1.484375 -1.132812 1.609375 -1.085938 C 1.734375 -1.042969 1.863281 -1.011719 1.996094 -1 C 2.132812 -0.984375 2.214844 -0.976562 2.246094 -0.976562 C 2.296875 -0.976562 2.324219 -1 2.324219 -1.042969 Z "/>
</g>
<g id="glyph-0-2">
<path d="M 1.914062 -0.25 L 1.085938 -0.25 C 0.902344 -0.25 0.777344 -0.289062 0.707031 -0.363281 C 0.640625 -0.4375 0.605469 -0.546875 0.605469 -0.691406 L 0.605469 -3.496094 L 1.132812 -3.96875 L 1.132812 -1.234375 C 1.132812 -1.113281 1.191406 -1.050781 1.304688 -1.050781 L 1.914062 -1.050781 Z "/>
</g>
<g id="glyph-0-3">
<path d="M 3.132812 -1.230469 L 2.75 -0.46875 L 0.699219 -0.25 L 0 -0.25 L 0 -1.046875 L 0.925781 -1.046875 C 0.691406 -1.390625 0.574219 -1.621094 0.574219 -1.742188 C 0.574219 -1.945312 0.707031 -2.171875 0.972656 -2.425781 C 1.238281 -2.683594 1.488281 -2.808594 1.71875 -2.808594 C 1.910156 -2.808594 2.101562 -2.710938 2.292969 -2.507812 C 2.484375 -2.308594 2.59375 -2.105469 2.621094 -1.902344 C 2.597656 -1.933594 2.523438 -1.988281 2.398438 -2.070312 C 2.273438 -2.152344 2.140625 -2.195312 1.996094 -2.195312 C 1.71875 -2.195312 1.453125 -2.136719 1.191406 -2.015625 L 1.1875 -2 C 1.1875 -1.964844 1.230469 -1.882812 1.316406 -1.757812 C 1.398438 -1.632812 1.476562 -1.539062 1.550781 -1.476562 C 1.625 -1.414062 1.726562 -1.339844 1.847656 -1.253906 C 1.972656 -1.164062 2.054688 -1.113281 2.097656 -1.101562 Z "/>
</g>
<g id="glyph-0-4">
<rect x="0" y="0" width="0" height="0" mask="url(#mask-0)"/>
</g>
<g id="glyph-0-5">
<path d="M 1.453125 1.472656 L 1.75 1.15625 L 2.199219 1.488281 L 1.867188 1.820312 L 1.4375 1.515625 L 1.140625 1.820312 L 0.699219 1.496094 L 1.023438 1.164062 Z M 4.582031 -0.25 L 4.324219 -0.25 C 4.230469 -0.25 4.09375 -0.253906 3.921875 -0.261719 C 3.746094 -0.269531 3.597656 -0.417969 3.46875 -0.703125 C 3.34375 -0.988281 3.222656 -1.128906 3.105469 -1.128906 C 3.015625 -1.132812 2.871094 -1.078125 2.671875 -0.972656 C 2.472656 -0.863281 2.375 -0.785156 2.375 -0.738281 C 2.375 -0.683594 2.597656 -0.585938 3.042969 -0.441406 C 3.191406 -0.363281 3.277344 -0.289062 3.304688 -0.214844 L 3.324219 -0.0898438 L 3.226562 0.308594 C 3.179688 0.453125 2.964844 0.609375 2.582031 0.78125 C 2.203125 0.953125 1.773438 1.039062 1.296875 1.039062 C 0.941406 1.039062 0.644531 0.949219 0.40625 0.773438 C 0.167969 0.59375 0.046875 0.324219 0.046875 -0.03125 C 0.046875 -0.351562 0.160156 -0.726562 0.386719 -1.164062 C 0.550781 -1.4375 0.667969 -1.582031 0.742188 -1.597656 L 0.75 -1.578125 C 0.738281 -1.535156 0.703125 -1.464844 0.652344 -1.367188 C 0.597656 -1.269531 0.535156 -1.140625 0.460938 -0.976562 C 0.382812 -0.8125 0.347656 -0.675781 0.347656 -0.566406 C 0.3125 0.0273438 0.785156 0.324219 1.761719 0.324219 C 1.917969 0.324219 2.140625 0.300781 2.429688 0.25 C 2.554688 0.210938 2.621094 0.164062 2.621094 0.105469 C 2.621094 0.0820312 2.496094 0.03125 2.25 -0.046875 C 1.894531 -0.140625 1.714844 -0.230469 1.714844 -0.3125 C 1.710938 -0.734375 1.886719 -1.105469 2.238281 -1.417969 C 2.589844 -1.730469 2.917969 -1.886719 3.234375 -1.878906 C 3.378906 -1.878906 3.5 -1.773438 3.601562 -1.5625 C 3.753906 -1.285156 3.871094 -1.132812 3.945312 -1.097656 C 4.023438 -1.0625 4.132812 -1.046875 4.277344 -1.046875 L 4.582031 -1.046875 Z "/>
</g>
<g id="glyph-0-6">
<path d="M 0.816406 -3.9375 L 1.421875 -3.675781 L 1.199219 -3.148438 L 0.609375 -3.414062 Z M 2.445312 -0.25 L 0 -0.25 L 0 -1.046875 L 1.648438 -1.046875 C 1.683594 -1.046875 1.703125 -1.078125 1.703125 -1.140625 C 1.703125 -1.1875 1.65625 -1.296875 1.558594 -1.476562 C 1.464844 -1.652344 1.378906 -1.773438 1.300781 -1.839844 L 1.75 -2.484375 C 1.902344 -2.3125 2.023438 -2.066406 2.113281 -1.75 C 2.203125 -1.429688 2.25 -1.195312 2.25 -1.046875 L 2.445312 -1.046875 Z "/>
</g>
<g id="glyph-0-7">
<path d="M 3.171875 -0.25 L 2.992188 -0.25 C 2.507812 -0.25 2.125 -0.386719 1.835938 -0.664062 L 1.515625 -0.488281 C 1.097656 -0.332031 0.757812 -0.25 0.5 -0.25 L 0 -0.25 L 0 -1.046875 C 0.207031 -1.046875 0.421875 -1.046875 0.648438 -1.046875 C 0.871094 -1.046875 1.144531 -1.101562 1.464844 -1.207031 C 1.488281 -1.246094 1.5 -1.265625 1.5 -1.269531 C 1.5 -1.328125 1.425781 -1.414062 1.273438 -1.523438 C 1.121094 -1.632812 1.007812 -1.691406 0.9375 -1.691406 C 0.816406 -1.691406 0.710938 -1.675781 0.621094 -1.644531 C 0.628906 -1.714844 0.6875 -1.855469 0.796875 -2.066406 C 0.902344 -2.28125 0.996094 -2.421875 1.074219 -2.492188 C 1.273438 -2.59375 1.484375 -2.644531 1.703125 -2.644531 C 1.820312 -2.644531 1.9375 -2.621094 2.054688 -2.574219 C 2.167969 -2.527344 2.269531 -2.46875 2.363281 -2.390625 C 2.457031 -2.316406 2.519531 -2.25 2.5625 -2.1875 C 2.601562 -2.128906 2.621094 -2.046875 2.621094 -1.9375 C 2.621094 -1.824219 2.511719 -1.597656 2.300781 -1.253906 C 2.40625 -1.117188 2.644531 -1.046875 3.015625 -1.046875 L 3.171875 -1.046875 Z "/>
</g>
<g id="glyph-0-8">
<path d="M 2.28125 -0.84375 C 2.28125 -0.449219 2.230469 -0.25 2.121094 -0.25 L 0 -0.25 L 0 -1.046875 L 1.632812 -1.046875 C 1.667969 -1.046875 1.6875 -1.078125 1.6875 -1.140625 C 1.6875 -1.1875 1.628906 -1.3125 1.515625 -1.515625 C 1.402344 -1.722656 1.328125 -1.824219 1.296875 -1.824219 L 1.722656 -2.488281 C 1.859375 -2.375 1.992188 -2.125 2.121094 -1.738281 C 2.230469 -1.351562 2.28125 -1.054688 2.28125 -0.84375 Z M 1.144531 0.644531 L 1.464844 0.25 L 1.949219 0.664062 L 1.59375 1.078125 L 1.128906 0.695312 L 0.8125 1.078125 L 0.335938 0.675781 L 0.6875 0.257812 Z "/>
</g>
<g id="glyph-0-9">
<path d="M 2.023438 0.625 C 1.683594 1.085938 1.347656 1.320312 1.015625 1.320312 C 0.765625 1.320312 0.515625 1.195312 0.273438 0.949219 C 0.0273438 0.703125 -0.136719 0.449219 -0.222656 0.195312 L -0.0898438 0.277344 C 0.00390625 0.328125 0.132812 0.386719 0.300781 0.453125 C 0.46875 0.519531 0.640625 0.550781 0.816406 0.550781 C 1.152344 0.535156 1.441406 0.414062 1.679688 0.195312 C 1.921875 -0.0234375 2.042969 -0.179688 2.042969 -0.269531 C 2.039062 -0.472656 1.835938 -0.753906 1.433594 -1.109375 L 1.777344 -1.832031 C 1.878906 -1.730469 1.96875 -1.636719 2.050781 -1.554688 C 2.132812 -1.472656 2.203125 -1.375 2.257812 -1.261719 C 2.292969 -1.195312 2.320312 -1.125 2.339844 -1.046875 L 2.558594 -1.046875 L 2.558594 -0.25 L 2.386719 -0.25 C 2.351562 0.015625 2.230469 0.308594 2.023438 0.625 Z "/>
</g>
<g id="glyph-0-10">
<path d="M 1.234375 -4.085938 L 1.867188 -3.832031 L 1.636719 -3.316406 L 1.011719 -3.578125 Z M 2.273438 -1.453125 C 2.273438 -1.304688 2.269531 -1.167969 2.261719 -1.046875 L 2.457031 -1.046875 L 2.457031 -0.25 L 2.253906 -0.25 L 2.070312 -0.320312 C 2.054688 -0.308594 2.042969 -0.300781 2.023438 -0.300781 C 1.800781 -0.269531 1.558594 -0.25 1.296875 -0.25 L 0 -0.25 L 0 -1.046875 L 1.550781 -1.046875 L 0.882812 -1.355469 C 0.648438 -1.460938 0.53125 -1.597656 0.53125 -1.761719 C 0.53125 -1.925781 0.660156 -2.1875 0.921875 -2.542969 C 1.140625 -2.855469 1.328125 -3.007812 1.484375 -3.007812 C 1.679688 -3.007812 1.886719 -2.808594 2.101562 -2.410156 C 2.160156 -2.285156 2.203125 -2.132812 2.230469 -1.949219 C 2.257812 -1.765625 2.273438 -1.601562 2.273438 -1.453125 Z M 1.890625 -1.574219 C 1.890625 -1.679688 1.828125 -1.867188 1.707031 -2.132812 C 1.570312 -2.363281 1.457031 -2.480469 1.367188 -2.480469 C 1.34375 -2.480469 1.3125 -2.472656 1.273438 -2.457031 C 1.230469 -2.441406 1.171875 -2.410156 1.097656 -2.363281 C 1.023438 -2.316406 0.96875 -2.269531 0.9375 -2.21875 C 0.910156 -2.167969 0.890625 -2.128906 0.882812 -2.101562 L 1.882812 -1.542969 C 1.886719 -1.550781 1.890625 -1.558594 1.890625 -1.574219 Z "/>
</g>
<g id="glyph-0-11">
<path d="M 1.992188 -1.035156 C 2.191406 -1.035156 2.414062 -1.128906 2.660156 -1.320312 C 2.882812 -1.488281 3.054688 -1.617188 3.171875 -1.714844 C 3.730469 -2.203125 4.105469 -2.445312 4.292969 -2.445312 C 4.472656 -2.445312 4.667969 -2.398438 4.878906 -2.300781 C 5.414062 -1.964844 5.679688 -1.648438 5.679688 -1.355469 C 5.679688 -1.261719 5.664062 -1.160156 5.632812 -1.050781 L 5.835938 -1.046875 L 5.835938 -0.25 L 5.429688 -0.25 L 5.304688 -0.382812 C 5.292969 -0.367188 5.285156 -0.347656 5.273438 -0.335938 C 5.242188 -0.28125 5.132812 -0.25 4.949219 -0.25 L 1.75 -0.25 C 1.324219 -0.25 1.003906 -0.316406 0.792969 -0.441406 C 0.601562 -0.316406 0.390625 -0.25 0.160156 -0.25 L 0 -0.25 L 0 -1.046875 C 0.492188 -1.035156 0.753906 -1.058594 0.792969 -1.117188 C 0.820312 -1.148438 0.832031 -1.226562 0.832031 -1.355469 C 0.832031 -1.488281 0.824219 -1.582031 0.808594 -1.648438 L 1.28125 -2.128906 C 1.289062 -2.097656 1.292969 -2.058594 1.296875 -2.007812 C 1.304688 -1.960938 1.304688 -1.902344 1.304688 -1.835938 C 1.304688 -1.777344 1.296875 -1.703125 1.28125 -1.617188 C 1.269531 -1.53125 1.253906 -1.453125 1.234375 -1.386719 C 1.21875 -1.316406 1.203125 -1.261719 1.1875 -1.21875 C 1.171875 -1.175781 1.164062 -1.148438 1.164062 -1.132812 C 1.171875 -1.109375 1.207031 -1.089844 1.273438 -1.066406 C 1.339844 -1.046875 1.578125 -1.035156 1.992188 -1.035156 Z M 5.257812 -1.140625 C 5.257812 -1.238281 5.128906 -1.355469 4.863281 -1.488281 C 4.613281 -1.621094 4.433594 -1.683594 4.328125 -1.683594 C 3.917969 -1.683594 3.558594 -1.582031 3.25 -1.371094 C 3.015625 -1.195312 2.902344 -1.066406 2.902344 -0.996094 C 2.921875 -0.988281 3.03125 -0.976562 3.222656 -0.96875 C 3.414062 -0.960938 3.792969 -0.953125 4.363281 -0.953125 C 4.960938 -0.953125 5.257812 -1.015625 5.257812 -1.140625 Z "/>
</g>
<g id="glyph-0-12">
<path d="M 1.890625 -3.203125 L 1.691406 -2.785156 L 1.691406 -0.328125 L 1.566406 -0.25 L 0 -0.25 L 0 -1.046875 L 1.164062 -1.046875 L 1.164062 -3.007812 L 1.066406 -3.539062 L 1.585938 -3.96875 L 1.652344 -3.449219 Z "/>
</g>
<g id="glyph-0-13">
<path d="M 1.292969 -0.789062 L 0.765625 0 L 0.765625 -3.257812 L 1.292969 -3.96875 Z "/>
</g>
<g id="glyph-0-14">
<path d="M 0.988281 -0.582031 C 0.988281 -0.351562 0.875 -0.238281 0.652344 -0.238281 C 0.550781 -0.238281 0.46875 -0.269531 0.40625 -0.332031 C 0.34375 -0.390625 0.3125 -0.472656 0.3125 -0.574219 C 0.3125 -0.800781 0.429688 -0.917969 0.664062 -0.917969 C 0.761719 -0.917969 0.839844 -0.882812 0.898438 -0.820312 C 0.960938 -0.753906 0.988281 -0.675781 0.988281 -0.582031 Z "/>
</g>
</g>
<image id="source-19" x="0" y="0" width="0" height="0"/>
<mask id="mask-0">
<use xlink:href="#source-19"/>
</mask>
</defs>
<g fill="rgb(68.235294%, 72.156863%, 86.27451%)" fill-opacity="1">
<use xlink:href="#glyph-0-0" x="522" y="25.371094"/>
<use xlink:href="#glyph-0-1" x="525" y="25.371094"/>
<use xlink:href="#glyph-0-2" x="528" y="25.371094"/>
<use xlink:href="#glyph-0-3" x="530" y="25.371094"/>
<use xlink:href="#glyph-0-4" x="533" y="25.371094"/>
<use xlink:href="#glyph-0-5" x="535" y="25.371094"/>
<use xlink:href="#glyph-0-6" x="539" y="25.371094"/>
<use xlink:href="#glyph-0-7" x="541" y="25.371094"/>
<use xlink:href="#glyph-0-8" x="544" y="25.371094"/>
<use xlink:href="#glyph-0-4" x="546" y="25.371094"/>
<use xlink:href="#glyph-0-9" x="548" y="25.371094"/>
<use xlink:href="#glyph-0-10" x="550" y="25.371094"/>
<use xlink:href="#glyph-0-11" x="552" y="25.371094"/>
<use xlink:href="#glyph-0-12" x="558" y="25.371094"/>
<use xlink:href="#glyph-0-13" x="560" y="25.371094"/>
<use xlink:href="#glyph-0-4" x="562" y="25.371094"/>
<use xlink:href="#glyph-0-14" x="564" y="25.371094"/>
</g>
</svg>
